<svg width="80" height="36" viewBox="0 0 80 36" fill="none" xmlns="http://www.w3.org/2000/svg">
<g filter="url(#filter0_d_217_82)">
<rect x="2" y="2" width="72" height="28" rx="14" fill="#016360"/>
</g>
<path d="M16.6515 19.6058V14.5774H17.9228V19.6058H16.6515ZM14.7729 17.7273V16.456H19.8013V17.7273H14.7729ZM27.54 13.52H30.06V14.59H27.54V13.52ZM27.54 16.39H30.06V17.46H27.54V16.39ZM25.94 12.27C27.32 12.27 28.33 13.55 28.33 15.57C28.33 17.61 27.32 18.89 25.94 18.89C24.55 18.89 23.55 17.61 23.55 15.57C23.55 13.55 24.55 12.27 25.94 12.27ZM25.94 13.48C25.27 13.48 24.81 14.21 24.81 15.57C24.81 16.95 25.27 17.69 25.94 17.69C26.62 17.69 27.07 16.95 27.07 15.57C27.07 14.21 26.62 13.48 25.94 13.48ZM29.85 11.62H31.17V20.91H29.85V11.62ZM39.2292 11.63H40.4892V17.43H39.2292V11.63ZM38.0992 13.91H39.5792V14.99H38.0992V13.91ZM37.3092 11.81H38.5492V17.13H37.3092V11.81ZM32.5592 12.58H37.0492V13.6H32.5592V12.58ZM34.8192 13.9C35.9792 13.9 36.8192 14.56 36.8192 15.52C36.8192 16.48 35.9792 17.13 34.8192 17.13C33.6592 17.13 32.8192 16.48 32.8192 15.52C32.8192 14.56 33.6592 13.9 34.8192 13.9ZM34.8192 14.85C34.3292 14.85 33.9992 15.09 33.9992 15.52C33.9992 15.95 34.3292 16.19 34.8192 16.19C35.2992 16.19 35.6292 15.95 35.6292 15.52C35.6292 15.09 35.2992 14.85 34.8192 14.85ZM34.1492 11.72H35.4592V13.28H34.1492V11.72ZM37.3592 17.53C39.3392 17.53 40.5392 18.13 40.5392 19.21C40.5392 20.28 39.3392 20.89 37.3592 20.89C35.3692 20.89 34.1692 20.28 34.1692 19.21C34.1692 18.13 35.3692 17.53 37.3592 17.53ZM37.3592 18.52C36.1192 18.52 35.4992 18.73 35.4992 19.21C35.4992 19.68 36.1192 19.9 37.3592 19.9C38.5892 19.9 39.2092 19.68 39.2092 19.21C39.2092 18.73 38.5892 18.52 37.3592 18.52ZM47.6329 17.56H48.9529V20.9H47.6329V17.56ZM44.1229 17.17H52.4929V18.25H44.1229V17.17ZM47.6229 13.29H48.7929V13.51C48.7929 15.06 47.4529 16.41 45.0029 16.7L44.5429 15.66C46.6329 15.42 47.6229 14.37 47.6229 13.51V13.29ZM47.7929 13.29H48.9629V13.51C48.9629 14.35 49.9629 15.42 52.0429 15.66L51.5729 16.7C49.1329 16.42 47.7929 15.02 47.7929 13.51V13.29ZM44.8729 12.69H51.7329V13.74H44.8729V12.69ZM47.6329 11.65H48.9529V13.05H47.6329V11.65ZM59.2321 11.62H60.5721V20.88H59.2321V11.62ZM60.2221 15.16H61.8521V16.25H60.2221V15.16ZM56.8021 12.58H58.1021C58.1021 15.36 57.0421 17.74 53.9621 19.29L53.2221 18.28C55.6521 17.02 56.8021 15.32 56.8021 12.81V12.58ZM53.7321 12.58H57.4821V13.65H53.7321V12.58Z" fill="white"/>
<defs>
<filter id="filter0_d_217_82" x="0" y="0" width="80" height="36" filterUnits="userSpaceOnUse" color-interpolation-filters="sRGB">
<feFlood flood-opacity="0" result="BackgroundImageFix"/>
<feColorMatrix in="SourceAlpha" type="matrix" values="0 0 0 0 0 0 0 0 0 0 0 0 0 0 0 0 0 0 127 0" result="hardAlpha"/>
<feOffset dx="2" dy="2"/>
<feGaussianBlur stdDeviation="2"/>
<feComposite in2="hardAlpha" operator="out"/>
<feColorMatrix type="matrix" values="0 0 0 0 0 0 0 0 0 0 0 0 0 0 0 0 0 0 0.25 0"/>
<feBlend mode="normal" in2="BackgroundImageFix" result="effect1_dropShadow_217_82"/>
<feBlend mode="normal" in="SourceGraphic" in2="effect1_dropShadow_217_82" result="shape"/>
</filter>
</defs>
</svg>
