<svg width="18" height="19" viewBox="0 0 18 19" fill="none" xmlns="http://www.w3.org/2000/svg">
<path d="M15.3 1.9H13.5V0.95C13.5 0.698044 13.4052 0.456408 13.2364 0.278249C13.0676 0.100089 12.8387 0 12.6 0C12.3613 0 12.1324 0.100089 11.9636 0.278249C11.7948 0.456408 11.7 0.698044 11.7 0.95V1.9H6.3V0.95C6.3 0.698044 6.20518 0.456408 6.0364 0.278249C5.86761 0.100089 5.63869 0 5.4 0C5.1613 0 4.93239 0.100089 4.7636 0.278249C4.59482 0.456408 4.5 0.698044 4.5 0.95V1.9H2.7C1.98392 1.9 1.29716 2.20027 0.790812 2.73475C0.284464 3.26922 0 3.99413 0 4.75V16.15C0 16.9059 0.284464 17.6308 0.790812 18.1653C1.29716 18.6997 1.98392 19 2.7 19H15.3C16.0161 19 16.7028 18.6997 17.2092 18.1653C17.7155 17.6308 18 16.9059 18 16.15V4.75C18 3.99413 17.7155 3.26922 17.2092 2.73475C16.7028 2.20027 16.0161 1.9 15.3 1.9ZM16.2 16.15C16.2 16.402 16.1052 16.6436 15.9364 16.8218C15.7676 16.9999 15.5387 17.1 15.3 17.1H2.7C2.46131 17.1 2.23239 16.9999 2.0636 16.8218C1.89482 16.6436 1.8 16.402 1.8 16.15V9.5H16.2V16.15ZM16.2 7.6H1.8V4.75C1.8 4.49804 1.89482 4.25641 2.0636 4.07825C2.23239 3.90009 2.46131 3.8 2.7 3.8H4.5V4.75C4.5 5.00196 4.59482 5.24359 4.7636 5.42175C4.93239 5.59991 5.1613 5.7 5.4 5.7C5.63869 5.7 5.86761 5.59991 6.0364 5.42175C6.20518 5.24359 6.3 5.00196 6.3 4.75V3.8H11.7V4.75C11.7 5.00196 11.7948 5.24359 11.9636 5.42175C12.1324 5.59991 12.3613 5.7 12.6 5.7C12.8387 5.7 13.0676 5.59991 13.2364 5.42175C13.4052 5.24359 13.5 5.00196 13.5 4.75V3.8H15.3C15.5387 3.8 15.7676 3.90009 15.9364 4.07825C16.1052 4.25641 16.2 4.49804 16.2 4.75V7.6Z" fill="#016360"/>
</svg>
