<svg width="130" height="130" viewBox="0 0 130 130" fill="none" xmlns="http://www.w3.org/2000/svg">
<ellipse cx="63.7002" cy="65" rx="52" ry="53.3" fill="#D4EFEF"/>
<path fill-rule="evenodd" clip-rule="evenodd" d="M65.0002 10.8333C35.0839 10.8333 10.8335 35.0837 10.8335 64.9999C10.8335 94.9162 35.0839 119.167 65.0002 119.167C94.9164 119.167 119.167 94.9162 119.167 64.9999C119.167 35.0837 94.9164 10.8333 65.0002 10.8333ZM46.0418 51.4583C46.0418 48.9686 46.5322 46.5033 47.4849 44.2032C48.4377 41.9031 49.8342 39.8131 51.5946 38.0527C53.355 36.2922 55.445 34.8958 57.7451 33.943C60.0453 32.9903 62.5105 32.4999 65.0002 32.4999C67.4898 32.4999 69.9551 32.9903 72.2552 33.943C74.5553 34.8958 76.6453 36.2922 78.4057 38.0527C80.1662 39.8131 81.5626 41.9031 82.5154 44.2032C83.4681 46.5033 83.9585 48.9686 83.9585 51.4583C83.9585 56.4863 81.9611 61.3084 78.4057 64.8638C74.8504 68.4192 70.0282 70.4166 65.0002 70.4166C59.9721 70.4166 55.15 68.4192 51.5946 64.8638C48.0392 61.3084 46.0418 56.4863 46.0418 51.4583ZM98.8977 91.9966C94.8429 97.0971 89.6883 101.216 83.8186 104.044C77.9489 106.873 71.5159 108.339 65.0002 108.333C58.4844 108.339 52.0514 106.873 46.1817 104.044C40.3121 101.216 35.1574 97.0971 31.1027 91.9966C39.8831 85.697 51.8647 81.2499 65.0002 81.2499C78.1356 81.2499 90.1172 85.697 98.8977 91.9966Z" fill="#80BFB5"/>
</svg>
