<svg width="109" height="109" viewBox="0 0 109 109" fill="none" xmlns="http://www.w3.org/2000/svg">
<path fill-rule="evenodd" clip-rule="evenodd" d="M54.1667 0C24.2504 0 0 24.2504 0 54.1667C0 84.0829 24.2504 108.333 54.1667 108.333C84.0829 108.333 108.333 84.0829 108.333 54.1667C108.333 24.2504 84.0829 0 54.1667 0ZM35.2083 40.625C35.2083 38.1354 35.6987 35.6701 36.6515 33.37C37.6042 31.0698 39.0007 28.9799 40.7611 27.2194C42.5215 25.459 44.6115 24.0625 46.9116 23.1098C49.2118 22.157 51.677 21.6667 54.1667 21.6667C56.6563 21.6667 59.1216 22.157 61.4217 23.1098C63.7218 24.0625 65.8118 25.459 67.5722 27.2194C69.3327 28.9799 70.7291 31.0698 71.6819 33.37C72.6346 35.6701 73.125 38.1354 73.125 40.625C73.125 45.6531 71.1276 50.4752 67.5722 54.0306C64.0169 57.5859 59.1947 59.5833 54.1667 59.5833C49.1386 59.5833 44.3165 57.5859 40.7611 54.0306C37.2057 50.4752 35.2083 45.6531 35.2083 40.625ZM88.0642 81.1633C84.0095 86.2638 78.8548 90.3823 72.9851 93.2111C67.1154 96.04 60.6825 97.5061 54.1667 97.5C47.6509 97.5061 41.2179 96.04 35.3482 93.2111C29.4786 90.3823 24.3239 86.2638 20.2692 81.1633C29.0496 74.8637 41.0313 70.4167 54.1667 70.4167C67.3021 70.4167 79.2838 74.8637 88.0642 81.1633Z" fill="#80BFB5"/>
</svg>
