<svg width="52" height="47" viewBox="0 0 52 47" fill="none" xmlns="http://www.w3.org/2000/svg">
<path d="M40.3908 27.906V40.1456M34.271 34.0258H46.5106" stroke="#016360" stroke-linecap="round" stroke-linejoin="round"/>
<path d="M31.4016 5.90436C32.4561 4.8496 33.8723 4.23539 35.363 4.18629C36.8537 4.1372 38.3072 4.6569 39.4289 5.63999L39.7109 5.90436L41.0954 7.28891C42.1496 8.34332 42.7635 9.75911 42.8125 11.2493C42.8616 12.7395 42.3423 14.1927 41.3598 15.3142L41.0954 15.5962L19.1386 37.5549C18.8281 37.8654 18.452 38.1023 18.038 38.2482L17.7207 38.3402L8.99831 40.3534C8.69274 40.424 8.37469 40.4203 8.07087 40.3425C7.76704 40.2647 7.48631 40.1152 7.25224 39.9065C7.01818 39.6977 6.83762 39.4359 6.72571 39.1429C6.61381 38.8499 6.57383 38.5344 6.60914 38.2227L6.64831 38.0014L8.65952 29.2771C8.75888 28.8492 8.95294 28.449 9.22744 28.106L9.44481 27.8612L31.4016 5.90436ZM30.0171 12.8271L12.4117 30.4325L11.1662 35.8336L16.5673 34.5861L34.1727 16.9807L30.0171 12.8271ZM36.9418 8.67345C36.6046 8.33627 36.1559 8.13372 35.68 8.10379C35.2041 8.07386 34.7336 8.21862 34.3568 8.51091L34.1727 8.67345L32.7862 10.058L36.9418 14.2116L38.3263 12.8271C38.6635 12.4899 38.866 12.0412 38.896 11.5653C38.9259 11.0894 38.7811 10.6189 38.4889 10.2421L38.3263 10.058L36.9418 8.67345Z" fill="#016360"/>
<path d="M40 27V41M33 34H47" stroke="#016360" stroke-width="2" stroke-linecap="round" stroke-linejoin="round"/>
</svg>
