<svg width="110" height="110" viewBox="0 0 110 110" fill="none" xmlns="http://www.w3.org/2000/svg">
<rect width="109" height="109" fill="#80BFB5"/>
<ellipse cx="53.8667" cy="55" rx="52" ry="53.3" fill="#D4EFEF"/>
<path fill-rule="evenodd" clip-rule="evenodd" d="M55.1667 0.833252C25.2504 0.833252 1 25.0837 1 54.9999C1 84.9162 25.2504 109.167 55.1667 109.167C85.0829 109.167 109.333 84.9162 109.333 54.9999C109.333 25.0837 85.0829 0.833252 55.1667 0.833252ZM36.2083 41.4583C36.2083 38.9686 36.6987 36.5033 37.6515 34.2032C38.6042 31.9031 40.0007 29.8131 41.7611 28.0527C43.5215 26.2922 45.6115 24.8958 47.9116 23.943C50.2118 22.9903 52.677 22.4999 55.1667 22.4999C57.6563 22.4999 60.1216 22.9903 62.4217 23.943C64.7218 24.8958 66.8118 26.2922 68.5722 28.0527C70.3327 29.8131 71.7291 31.9031 72.6819 34.2032C73.6346 36.5033 74.125 38.9686 74.125 41.4583C74.125 46.4863 72.1276 51.3084 68.5722 54.8638C65.0169 58.4192 60.1947 60.4166 55.1667 60.4166C50.1386 60.4166 45.3165 58.4192 41.7611 54.8638C38.2057 51.3084 36.2083 46.4863 36.2083 41.4583ZM89.0642 81.9966C85.0095 87.0971 79.8548 91.2155 73.9851 94.0444C68.1154 96.8732 61.6825 98.3393 55.1667 98.3333C48.6509 98.3393 42.2179 96.8732 36.3482 94.0444C30.4786 91.2155 25.3239 87.0971 21.2692 81.9966C30.0496 75.697 42.0313 71.2499 55.1667 71.2499C68.3021 71.2499 80.2838 75.697 89.0642 81.9966Z" fill="#80BFB5"/>
</svg>
