<svg width="19" height="19" viewBox="0 0 19 19" fill="none" xmlns="http://www.w3.org/2000/svg">
<path d="M7.09357 10.6877C6.51259 10.6876 5.94468 10.5153 5.46162 10.1925C4.97857 9.86975 4.60206 9.41099 4.3797 8.87425C4.15734 8.33751 4.09911 7.74689 4.21238 7.17707C4.32564 6.60724 4.60532 6.08379 5.01604 5.67289L8.04772 2.64179C8.59872 2.0908 9.34603 1.78125 10.1253 1.78125C10.9045 1.78125 11.6518 2.0908 12.2028 2.64179C12.7538 3.19279 13.0633 3.9401 13.0633 4.71932C13.0633 5.49855 12.7538 6.24586 12.2028 6.79685L11.8744 7.1246L11.0343 6.28564L11.365 5.95492C11.6921 5.62627 11.8755 5.18133 11.8751 4.71764C11.8746 4.25396 11.6904 3.80938 11.3626 3.48135C11.0291 3.16303 10.5857 2.98543 10.1247 2.98543C9.66359 2.98543 9.22024 3.16303 8.88669 3.48135L5.85619 6.51185C5.69351 6.67436 5.56444 6.86734 5.47639 7.07976C5.38833 7.29218 5.34301 7.51988 5.34301 7.74982C5.34301 7.97977 5.38833 8.20746 5.47639 8.41988C5.56444 8.6323 5.69351 8.82528 5.85619 8.98779C6.18974 9.30611 6.63309 9.48372 7.09416 9.48372C7.55523 9.48372 7.99858 9.30611 8.33213 8.98779L9.17169 9.82735C8.89938 10.101 8.57549 10.318 8.21879 10.4656C7.86208 10.6133 7.47963 10.6888 7.09357 10.6877Z" fill="#016360"/>
<path d="M11.8436 10.0938C11.2626 10.0937 10.6947 9.92143 10.2116 9.59865C9.72857 9.27586 9.35206 8.8171 9.1297 8.28036C8.90734 7.74362 8.84911 7.15301 8.96238 6.58318C9.07564 6.01335 9.35532 5.4899 9.76604 5.079L10.0944 4.75006L10.9339 5.59022L10.6062 5.91797C10.278 6.24622 10.0936 6.69142 10.0936 7.15564C10.0936 7.61985 10.278 8.06505 10.6062 8.39331C10.9397 8.71163 11.3831 8.88923 11.8442 8.88923C12.3052 8.88923 12.7486 8.71163 13.0821 8.39331L16.1132 5.36222C16.4408 5.03375 16.6248 4.58876 16.6248 4.12484C16.6248 3.66092 16.4408 3.21593 16.1132 2.88747C15.7797 2.56915 15.3363 2.39154 14.8753 2.39154C14.4142 2.39154 13.9708 2.56915 13.6373 2.88747L12.7977 2.04731C13.3487 1.49631 14.096 1.18677 14.8753 1.18677C15.6545 1.18677 16.4018 1.49631 16.9528 2.04731C17.5038 2.5983 17.8133 3.34562 17.8133 4.12484C17.8133 4.90407 17.5038 5.65138 16.9528 6.20237L13.9223 9.23228C13.65 9.50599 13.3261 9.72301 12.9694 9.87079C12.6127 10.0186 12.2303 10.0942 11.8442 10.0932" fill="#016360"/>
<path d="M14.25 16.6252H2.375C2.06015 16.6249 1.75829 16.4997 1.53566 16.2771C1.31303 16.0545 1.18781 15.7526 1.1875 15.4377V3.56274C1.18781 3.2479 1.31303 2.94603 1.53566 2.7234C1.75829 2.50077 2.06015 2.37556 2.375 2.37524H4.75V3.56274H2.375V15.4377H14.25V9.50024H15.4375V15.4377C15.4372 15.7526 15.312 16.0545 15.0893 16.2771C14.8667 16.4997 14.5648 16.6249 14.25 16.6252Z" fill="#016360"/>
</svg>
