<svg width="46" height="46" viewBox="0 0 46 46" fill="none" xmlns="http://www.w3.org/2000/svg">
<g filter="url(#filter0_d_825_3)">
<path d="M36.9544 34.9205C37.0879 35.054 37.1939 35.2126 37.2661 35.3871C37.3384 35.5616 37.3756 35.7486 37.3756 35.9375C37.3756 36.1264 37.3384 36.3134 37.2661 36.4879C37.1939 36.6624 37.0879 36.821 36.9544 36.9545C36.8208 37.0881 36.6622 37.194 36.4877 37.2663C36.3132 37.3386 36.1262 37.3758 35.9373 37.3758C35.7484 37.3758 35.5614 37.3386 35.3869 37.2663C35.2124 37.194 35.0539 37.0881 34.9203 36.9545L22.9998 25.0323L11.0794 36.9545C10.8096 37.2243 10.4438 37.3758 10.0623 37.3758C9.68086 37.3758 9.31502 37.2243 9.04529 36.9545C8.77556 36.6848 8.62402 36.319 8.62402 35.9375C8.62402 35.556 8.77556 35.1902 9.04529 34.9205L20.9676 23L9.04529 11.0795C8.77556 10.8098 8.62402 10.444 8.62402 10.0625C8.62402 9.68105 8.77556 9.31521 9.04529 9.04547C9.31502 8.77574 9.68086 8.62421 10.0623 8.62421C10.4438 8.62421 10.8096 8.77574 11.0794 9.04547L22.9998 20.9677L34.9203 9.04547C35.19 8.77574 35.5559 8.62421 35.9373 8.62421C36.3188 8.62421 36.6846 8.77574 36.9544 9.04547C37.2241 9.31521 37.3756 9.68105 37.3756 10.0625C37.3756 10.444 37.2241 10.8098 36.9544 11.0795L25.0321 23L36.9544 34.9205Z" fill="#919191"/>
</g>
<defs>
<filter id="filter0_d_825_3" x="-4" y="0" width="54" height="54" filterUnits="userSpaceOnUse" color-interpolation-filters="sRGB">
<feFlood flood-opacity="0" result="BackgroundImageFix"/>
<feColorMatrix in="SourceAlpha" type="matrix" values="0 0 0 0 0 0 0 0 0 0 0 0 0 0 0 0 0 0 127 0" result="hardAlpha"/>
<feOffset dy="4"/>
<feGaussianBlur stdDeviation="2"/>
<feComposite in2="hardAlpha" operator="out"/>
<feColorMatrix type="matrix" values="0 0 0 0 0 0 0 0 0 0 0 0 0 0 0 0 0 0 0.25 0"/>
<feBlend mode="normal" in2="BackgroundImageFix" result="effect1_dropShadow_825_3"/>
<feBlend mode="normal" in="SourceGraphic" in2="effect1_dropShadow_825_3" result="shape"/>
</filter>
</defs>
</svg>
