<svg width="33" height="41" viewBox="0 0 33 41" fill="none" xmlns="http://www.w3.org/2000/svg">
<path d="M19.3579 19.1879C19.4946 18.9738 19.6645 18.7958 19.8574 18.6644C20.0503 18.533 20.2625 18.4509 20.4813 18.4229C20.7002 18.3949 20.9213 18.4215 21.1318 18.5013C21.3422 18.581 21.5377 18.7123 21.7067 18.8873C21.8757 19.0623 22.0149 19.2775 22.116 19.5203C22.217 19.7631 22.278 20.0285 22.2953 20.301C22.3126 20.5735 22.2858 20.8476 22.2166 21.1071C22.1474 21.3665 22.0371 21.6062 21.8923 21.8119L13.6423 34.1119C13.5055 34.326 13.3357 34.504 13.1427 34.6354C12.9498 34.7668 12.7377 34.8489 12.5188 34.8769C12.2999 34.9049 12.0788 34.8783 11.8683 34.7985C11.6579 34.7188 11.4624 34.5876 11.2934 34.4126C11.1244 34.2376 10.9852 34.0223 10.8842 33.7795C10.7831 33.5367 10.7221 33.2713 10.7048 32.9988C10.6875 32.7263 10.7143 32.4522 10.7835 32.1928C10.8527 31.9333 10.963 31.6936 11.1079 31.4879L19.3579 19.1879Z" fill="#016360"/>
<path d="M11.1079 9.51195C10.8402 9.09272 10.715 8.56002 10.7592 8.02766C10.8033 7.49531 11.0133 7.00551 11.3442 6.6629C11.6751 6.32029 12.1007 6.15203 12.5301 6.19409C12.9596 6.23614 13.3587 6.48516 13.6423 6.88795L21.8923 19.188C22.0372 19.3937 22.1475 19.6333 22.2167 19.8928C22.2859 20.1523 22.3127 20.4263 22.2954 20.6988C22.2781 20.9713 22.2171 21.2368 22.116 21.4796C22.015 21.7224 21.8758 21.9376 21.7068 22.1126C21.5378 22.2876 21.3423 22.4188 21.1319 22.4986C20.9214 22.5783 20.7003 22.605 20.4814 22.577C20.2625 22.5489 20.0504 22.4668 19.8575 22.3355C19.6645 22.2041 19.4947 22.0261 19.3579 21.812L11.1079 9.51195Z" fill="#016360"/>
</svg>
