<svg width="33" height="41" viewBox="0 0 33 41" fill="none" xmlns="http://www.w3.org/2000/svg">
<path d="M13.6421 19.1879C13.5054 18.9738 13.3355 18.7958 13.1426 18.6644C12.9497 18.533 12.7375 18.4509 12.5187 18.4229C12.2998 18.3949 12.0787 18.4215 11.8682 18.5013C11.6578 18.581 11.4623 18.7123 11.2933 18.8873C11.1243 19.0623 10.9851 19.2775 10.884 19.5203C10.783 19.7631 10.722 20.0285 10.7047 20.301C10.6874 20.5735 10.7142 20.8476 10.7834 21.1071C10.8526 21.3665 10.9629 21.6062 11.1077 21.8119L19.3577 34.1119C19.4945 34.326 19.6643 34.504 19.8573 34.6354C20.0502 34.7668 20.2623 34.8489 20.4812 34.8769C20.7001 34.9049 20.9212 34.8783 21.1317 34.7985C21.3421 34.7188 21.5376 34.5876 21.7066 34.4126C21.8756 34.2376 22.0148 34.0223 22.1158 33.7795C22.2169 33.5367 22.2779 33.2713 22.2952 32.9988C22.3125 32.7263 22.2857 32.4522 22.2165 32.1928C22.1473 31.9333 22.037 31.6936 21.8921 31.4879L13.6421 19.1879Z" fill="#016360"/>
<path d="M21.8921 9.51195C22.1598 9.09272 22.285 8.56002 22.2408 8.02766C22.1967 7.49531 21.9867 7.00551 21.6558 6.6629C21.3249 6.32029 20.8993 6.15203 20.4699 6.19409C20.0404 6.23614 19.6413 6.48516 19.3577 6.88795L11.1077 19.188C10.9628 19.3937 10.8525 19.6333 10.7833 19.8928C10.7141 20.1523 10.6873 20.4263 10.7046 20.6988C10.7219 20.9713 10.7829 21.2368 10.884 21.4796C10.985 21.7224 11.1242 21.9376 11.2932 22.1126C11.4622 22.2876 11.6577 22.4188 11.8681 22.4986C12.0786 22.5783 12.2997 22.605 12.5186 22.577C12.7375 22.5489 12.9496 22.4668 13.1425 22.3355C13.3355 22.2041 13.5053 22.0261 13.6421 21.812L21.8921 9.51195Z" fill="#016360"/>
</svg>
