<svg width="11" height="18" viewBox="0 0 11 18" fill="none" xmlns="http://www.w3.org/2000/svg">
<path d="M0.47 10.07C0.41 9.83 0.38 9.56 0.38 9.26C0.38 8.94 0.41 8.72 0.47 8.6C0.67 8.4 1.62 7.48 3.32 5.84C5.04 4.2 6.09 3.2 6.47 2.84C7.17 2.22 8.14 1.49 9.38 0.649999L10.58 1.97C6.78 5.65 4.6 7.74 4.04 8.24C3.5 8.74 3.11 9.08 2.87 9.26C3.51 9.78 3.85 10.06 3.89 10.1L10.58 16.52L9.38 17.84C8.3 17.12 7.44 16.49 6.8 15.95C6.18 15.39 5.01 14.31 3.29 12.71C1.57 11.11 0.63 10.23 0.47 10.07Z" fill="#016360"/>
</svg>
