<svg width="6" height="26" viewBox="0 0 6 26" fill="none" xmlns="http://www.w3.org/2000/svg">
<path opacity="0.2" fill-rule="evenodd" clip-rule="evenodd" d="M2.6999 1.95007C2.0236 1.95007 1.375 2.15552 0.89678 2.52122C0.418562 2.88691 0.149902 3.3829 0.149902 3.90007V23.4001C0.149902 23.9172 0.418562 24.4132 0.89678 24.7789C1.375 25.1446 2.0236 25.3501 2.6999 25.3501C3.3762 25.3501 4.02481 25.1446 4.50302 24.7789C4.98124 24.4132 5.2499 23.9172 5.2499 23.4001V3.90007C5.2499 3.3829 4.98124 2.88691 4.50302 2.52122C4.02481 2.15552 3.3762 1.95007 2.6999 1.95007Z" fill="#016360"/>
<path fill-rule="evenodd" clip-rule="evenodd" d="M0.999902 0.650024C0.774468 0.650024 0.558267 0.718506 0.398861 0.840405C0.239455 0.962304 0.149902 1.12763 0.149902 1.30002V24.7C0.149902 24.8724 0.239455 25.0377 0.398861 25.1596C0.558267 25.2815 0.774468 25.35 0.999902 25.35C1.22534 25.35 1.44154 25.2815 1.60094 25.1596C1.76035 25.0377 1.8499 24.8724 1.8499 24.7V1.30002C1.8499 1.12763 1.76035 0.962304 1.60094 0.840405C1.44154 0.718506 1.22534 0.650024 0.999902 0.650024Z" fill="#016360"/>
</svg>
