<svg width="19" height="19" viewBox="0 0 19 19" fill="none" xmlns="http://www.w3.org/2000/svg">
<path d="M2.37492 6.53124C2.37483 5.84234 2.54599 5.16422 2.87299 4.55788C3.19999 3.95153 3.67258 3.43598 4.24826 3.05759C4.82394 2.67919 5.48464 2.44983 6.17095 2.39012C6.85726 2.33042 7.54765 2.44224 8.18002 2.71554C8.81239 2.98884 9.36691 3.41504 9.79371 3.9558C10.2205 4.49657 10.5062 5.13495 10.6251 5.81352C10.7439 6.49208 10.6923 7.18956 10.4747 7.84321C10.2572 8.49686 9.88059 9.08619 9.37879 9.55818C10.325 10.0173 11.1465 10.6979 11.7737 11.5421C12.4009 12.3864 12.8153 13.3694 12.9817 14.4079C13 14.5235 12.9954 14.6415 12.9681 14.7553C12.9408 14.8691 12.8914 14.9763 12.8226 15.071C12.7538 15.1657 12.6671 15.2459 12.5674 15.307C12.4676 15.3682 12.3568 15.4091 12.2413 15.4274C12.1257 15.4457 12.0077 15.4411 11.8939 15.4138C11.7801 15.3865 11.6729 15.3371 11.5782 15.2683C11.4835 15.1996 11.4033 15.1129 11.3422 15.0131C11.281 14.9134 11.2401 14.8025 11.2218 14.687C11.0437 13.5711 10.4736 12.5553 9.61388 11.8219C8.75417 11.0885 7.66118 10.6857 6.53117 10.6857C5.40116 10.6857 4.30816 11.0885 3.44846 11.8219C2.58875 12.5553 2.01865 13.5711 1.84054 14.687C1.82214 14.8025 1.78116 14.9133 1.71994 15.0131C1.65872 15.1128 1.57845 15.1995 1.48373 15.2682C1.38901 15.3369 1.28168 15.3862 1.16788 15.4134C1.05408 15.4407 0.936035 15.4452 0.82048 15.4268C0.704925 15.4084 0.594126 15.3674 0.494409 15.3062C0.394692 15.245 0.30801 15.1647 0.239312 15.07C0.170614 14.9753 0.121245 14.8679 0.094025 14.7541C0.0668048 14.6403 0.0622658 14.5223 0.0806673 14.4067C0.247315 13.3686 0.6618 12.386 1.28899 11.5422C1.91617 10.6984 2.73757 10.0182 3.68354 9.55937C3.2699 9.17097 2.94035 8.70184 2.71526 8.18099C2.49017 7.66014 2.37433 7.09865 2.37492 6.53124ZM13.0624 4.74999C13.7524 4.75048 14.4273 4.95123 15.0054 5.32789C15.5835 5.70455 16.0398 6.24091 16.3189 6.87188C16.5981 7.50284 16.6881 8.20127 16.5779 8.88238C16.4678 9.56349 16.1624 10.198 15.6987 10.7089C16.4215 11.0677 17.0637 11.5699 17.5863 12.1847C18.109 12.7996 18.501 13.5144 18.7387 14.2856C18.7857 14.4353 18.7924 14.5948 18.7579 14.7479C18.7234 14.901 18.649 15.0423 18.5422 15.1573C18.4355 15.2724 18.3002 15.3571 18.1502 15.403C18.0001 15.4489 17.8405 15.4542 17.6877 15.4185C17.535 15.3829 17.3944 15.3078 17.28 15.2007C17.1655 15.0935 17.0813 14.9581 17.0358 14.8081C16.823 14.1196 16.4351 13.4981 15.9102 13.0044C15.3852 12.5107 14.7412 12.1616 14.0409 11.9914C13.8465 11.9444 13.6735 11.8334 13.5498 11.6761C13.4261 11.5189 13.359 11.3245 13.3593 11.1245V10.7065C13.3592 10.5407 13.4054 10.3781 13.4926 10.2371C13.5799 10.0962 13.7048 9.98234 13.8533 9.90849C14.2133 9.73008 14.5024 9.43519 14.6737 9.07172C14.8449 8.70825 14.8883 8.29756 14.7967 7.90635C14.705 7.51514 14.4839 7.1664 14.169 6.91676C13.8542 6.66713 13.4642 6.53127 13.0624 6.53124C12.8262 6.53124 12.5997 6.43741 12.4327 6.27039C12.2656 6.10336 12.1718 5.87683 12.1718 5.64062C12.1718 5.40441 12.2656 5.17788 12.4327 5.01085C12.5997 4.84383 12.8262 4.74999 13.0624 4.74999ZM6.53117 4.15624C6.21489 4.14909 5.90037 4.2052 5.60608 4.32127C5.31178 4.43735 5.04364 4.61104 4.8174 4.83217C4.59116 5.0533 4.41137 5.3174 4.28861 5.60897C4.16584 5.90053 4.10255 6.21368 4.10247 6.53004C4.10239 6.8464 4.16552 7.15959 4.28814 7.45121C4.41077 7.74284 4.59042 8.00703 4.81655 8.22827C5.04268 8.44951 5.31073 8.62334 5.60497 8.73956C5.89921 8.85579 6.2137 8.91205 6.52998 8.90506C7.15052 8.89133 7.74103 8.63523 8.17511 8.19156C8.60918 7.74789 8.85232 7.15192 8.85247 6.53123C8.85263 5.91054 8.60979 5.31445 8.17594 4.87056C7.74209 4.42668 7.1517 4.17028 6.53117 4.15624Z" fill="#434343"/>
</svg>
